<svg width="40" height="40" viewBox="0 0 40 40" fill="none" xmlns="http://www.w3.org/2000/svg">
<path d="M3.35331 11.595C1.94393 11.595 0.797333 10.4321 0.797333 9.00263C0.797333 7.57319 1.94395 6.41026 3.35331 6.41026C4.76257 6.41026 5.90908 7.57319 5.90908 9.00263C5.90908 10.4321 4.76257 11.595 3.35331 11.595ZM3.35331 7.8159C2.70813 7.8159 2.1832 8.34827 2.1832 9.00261C2.1832 9.65695 2.70811 10.1893 3.35331 10.1893C3.99839 10.1893 4.52321 9.65693 4.52321 9.00261C4.52321 8.34829 3.99839 7.8159 3.35331 7.8159Z" fill="#AE00FF" stroke="black" stroke-width="0.001"/>
<path d="M24.9904 15.5641C23.581 15.5641 22.4344 14.4013 22.4344 12.9719C22.4344 11.5424 23.581 10.3795 24.9904 10.3795C26.3996 10.3795 27.5461 11.5425 27.5461 12.9719C27.5461 14.4013 26.3996 15.5641 24.9904 15.5641ZM24.9904 11.7851C24.3452 11.7851 23.8203 12.3175 23.8203 12.9719C23.8203 13.6262 24.3452 14.1584 24.9904 14.1584C25.6354 14.1584 26.1603 13.6262 26.1603 12.9719C26.1602 12.3175 25.6354 11.7851 24.9904 11.7851Z" fill="#AE00FF" stroke="black" stroke-width="0.001"/>
<path d="M14.1718 8.50158C11.8609 8.50158 9.98077 6.59469 9.98077 4.25079C9.98077 1.90689 11.8609 0 14.1718 0C16.4827 0 18.3626 1.90689 18.3626 4.25079C18.3626 6.59469 16.4827 8.50158 14.1718 8.50158ZM14.1718 1.40566C12.6251 1.40566 11.3666 2.68198 11.3666 4.25079C11.3666 5.8196 12.6251 7.09593 14.1718 7.09593C15.7185 7.09593 16.9768 5.8196 16.9768 4.25079C16.9768 2.68198 15.7185 1.40566 14.1718 1.40566Z" fill="#AE00FF" stroke="black" stroke-width="0.001"/>
<path d="M35.8091 8.50158C33.4982 8.50158 31.6181 6.59469 31.6181 4.25079C31.6181 1.90689 33.4982 0 35.8091 0C38.1199 0 40 1.90689 40 4.25079C40 6.59469 38.1199 8.50158 35.8091 8.50158ZM35.8091 1.40566C34.2623 1.40566 33.0039 2.68198 33.0039 4.25079C33.0039 5.8196 34.2623 7.09593 35.8091 7.09593C37.3558 7.09593 38.6141 5.8196 38.6141 4.25079C38.6141 2.68198 37.3558 1.40566 35.8091 1.40566Z" fill="#AE00FF" stroke="black" stroke-width="0.001"/>
<path d="M11.1979 6.06662L10.5552 4.82117L4.89463 7.82602L5.53727 9.07147L11.1979 6.06662Z" fill="#AE00FF" stroke="black" stroke-width="0.001"/>
<path d="M23.9502 11.5945L17.4564 6.08395L16.5671 7.16207L23.0609 12.6726L23.9502 11.5945Z" fill="#AE00FF" stroke="black" stroke-width="0.001"/>
<path d="M27.0425 12.88L26.1705 11.7874L32.7671 6.37189L33.6391 7.46445L27.0425 12.88Z" fill="#AE00FF" stroke="black" stroke-width="0.001"/>
<path d="M4.92616 40H1.78039C0.798705 40 0 39.1787 0 38.1693V16.881C0 15.8715 0.798705 15.0503 1.78039 15.0503H4.92616C5.90784 15.0503 6.70653 15.8715 6.70653 16.881V38.1693C6.70653 39.1787 5.90784 40 4.92616 40ZM1.78039 16.4559C1.56282 16.4559 1.38587 16.6466 1.38587 16.881V38.1693C1.38587 38.4036 1.56282 38.5943 1.78039 38.5943H4.92616C5.14371 38.5943 5.32065 38.4036 5.32065 38.1693V16.881C5.32065 16.6466 5.14369 16.4559 4.92616 16.4559H1.78039Z" fill="#AE00FF" stroke="black" stroke-width="0.001"/>
<path d="M15.7446 40H12.5987C11.6171 40 10.8184 39.1224 10.8184 38.0438V14.3855C10.8184 13.3068 11.6171 12.4293 12.5987 12.4293H15.7446C16.7262 12.4293 17.5248 13.3068 17.5248 14.3855V38.0438C17.5249 39.1224 16.7262 40 15.7446 40ZM12.5987 13.835C12.3849 13.835 12.2043 14.0871 12.2043 14.3855V38.0438C12.2043 38.3423 12.3849 38.5944 12.5987 38.5944H15.7446C15.9583 38.5944 16.139 38.3423 16.139 38.0438V14.3855C16.139 14.0871 15.9583 13.8349 15.7446 13.8349L12.5987 13.835Z" fill="#AE00FF" stroke="black" stroke-width="0.001"/>
<path d="M26.5632 40H23.4175C22.4357 40 21.637 39.2859 21.637 38.4082V21.6277C21.637 20.7499 22.4357 20.0358 23.4175 20.0358H26.5632C27.5449 20.0358 28.3436 20.7499 28.3436 21.6277V38.4082C28.3436 39.2859 27.5449 40 26.5632 40ZM23.4175 21.4415C23.1629 21.4415 23.0229 21.5813 23.0229 21.6277V38.4082C23.0229 38.4546 23.1629 38.5943 23.4175 38.5943H26.5632C26.8178 38.5943 26.9578 38.4545 26.9578 38.4082V21.6277C26.9578 21.5813 26.8178 21.4415 26.5632 21.4415H23.4175Z" fill="#AE00FF" stroke="black" stroke-width="0.001"/>
<path d="M37.3818 40H34.2359C33.2542 40 32.4556 39.1224 32.4556 38.0438V14.3855C32.4556 13.3068 33.2542 12.4293 34.2359 12.4293H37.3818C38.3636 12.4293 39.1623 13.3068 39.1623 14.3855V38.0438C39.1622 39.1224 38.3636 40 37.3818 40ZM34.2359 13.835C34.0221 13.835 33.8415 14.0871 33.8415 14.3855V38.0438C33.8415 38.3423 34.0221 38.5944 34.2359 38.5944H37.3818C37.5957 38.5944 37.7764 38.3423 37.7764 38.0438V14.3855C37.7764 14.0871 37.5957 13.8349 37.3818 13.8349L34.2359 13.835Z" fill="#AE00FF" stroke="black" stroke-width="0.001"/>
</svg>
